<?xml version="1.0" encoding="UTF-8"?>
<svg width="241px" height="75px" viewBox="0 0 241 75" version="1.1" xmlns="http://www.w3.org/2000/svg" xmlns:xlink="http://www.w3.org/1999/xlink">
    <title>Group 10</title>
    <defs>
        <linearGradient x1="50%" y1="19.6723863%" x2="50%" y2="98.7282321%" id="linearGradient-1">
            <stop stop-color="#15B10F" offset="0%"></stop>
            <stop stop-color="#0F7B20" offset="100%"></stop>
        </linearGradient>
    </defs>
    <g id="hifid-fix-milestone-4" stroke="none" stroke-width="1" fill="none" fill-rule="evenodd">
        <g id="iPhone-13-Copy-24" transform="translate(-74.000000, -422.000000)">
            <g id="Group-4" transform="translate(74.000000, 422.000000)">
                <path d="M2.16235937,11.5317327 L236.092884,14.9646754 C237.197334,14.9808833 238.079529,15.8893565 238.063321,16.9938071 C238.061517,17.1167723 238.048375,17.239309 238.024062,17.3598601 L226.823617,72.8954 C226.635377,73.8287546 225.815239,74.5 224.863092,74.5 L5.87704306,74.5 C4.82167851,74.5 3.94793477,73.6799727 3.88106216,72.6267289 L0.137031515,13.6582464 C0.0670410505,12.5558965 0.903933659,11.605527 2.00628347,11.5355365 C2.05823944,11.5322377 2.11030439,11.5309688 2.16235937,11.5317327 Z" id="Rectangle" fill="#106514"></path>
                <path d="M3.28867987,0.127657485 L238.250056,13.2332818 C239.352912,13.2947966 240.197085,14.238705 240.13557,15.3415603 C240.13115,15.4208132 240.122015,15.4997327 240.108214,15.5778999 L230.793836,68.3356787 C230.624177,69.2966474 229.785788,69.9948888 228.809983,69.9879054 L8.33237592,68.4100599 C7.29549245,68.4026395 6.43623629,67.6039933 6.35312358,66.5704196 L1.18373249,2.284862 C1.09519658,1.18384648 1.91597348,0.219524518 3.016989,0.130988616 C3.1073724,0.12372062 3.19814544,0.122607676 3.28867987,0.127657485 Z" id="Rectangle" fill="url(#linearGradient-1)"></path>
                <text id="MAIN" font-family="SFProRounded-Heavy, SF Pro Rounded" font-size="22" font-weight="600" line-spacing="26" fill="#FFFFFF">
                    <tspan x="91.3022461" y="47">MAIN</tspan>
                </text>
            </g>
        </g>
    </g>
</svg>