<?xml version="1.0" encoding="UTF-8"?>
<svg width="259px" height="93px" viewBox="0 0 259 93" version="1.1" xmlns="http://www.w3.org/2000/svg" xmlns:xlink="http://www.w3.org/1999/xlink">
    <title>Group 11</title>
    <defs>
        <filter x="-5.0%" y="-16.1%" width="110.0%" height="132.2%" filterUnits="objectBoundingBox" id="filter-1">
            <feOffset dx="0" dy="2" in="SourceAlpha" result="shadowOffsetOuter1"></feOffset>
            <feGaussianBlur stdDeviation="2" in="shadowOffsetOuter1" result="shadowBlurOuter1"></feGaussianBlur>
            <feColorMatrix values="0 0 0 0 0.223965615   0 0 0 0 0.2247226   0 0 0 0 0.193686216  0 0 0 0.75 0" type="matrix" in="shadowBlurOuter1" result="shadowMatrixOuter1"></feColorMatrix>
            <feMerge>
                <feMergeNode in="shadowMatrixOuter1"></feMergeNode>
                <feMergeNode in="SourceGraphic"></feMergeNode>
            </feMerge>
        </filter>
    </defs>
    <g id="hifid-fix-milestone-4" stroke="none" stroke-width="1" fill="none" fill-rule="evenodd">
        <g id="iPhone-13-Copy-26" transform="translate(-65.000000, -413.000000)">
            <g id="Group-10" filter="url(#filter-1)" transform="translate(74.000000, 422.000000)">
                <g id="Group-11">
                    <path d="M2.16235937,11.5317327 L236.092884,14.9646754 C237.197334,14.9808833 238.079529,15.8893565 238.063321,16.9938071 C238.061517,17.1167723 238.048375,17.239309 238.024062,17.3598601 L226.823617,72.8954 C226.635377,73.8287546 225.815239,74.5 224.863092,74.5 L5.87704306,74.5 C4.82167851,74.5 3.94793477,73.6799727 3.88106216,72.6267289 L0.137031515,13.6582464 C0.0670410505,12.5558965 0.903933659,11.605527 2.00628347,11.5355365 C2.05823944,11.5322377 2.11030439,11.5309688 2.16235937,11.5317327 Z" id="Rectangle" fill="#555555"></path>
                    <path d="M3.28867987,0.127657485 L238.250056,13.2332818 C239.352912,13.2947966 240.197085,14.238705 240.13557,15.3415603 C240.13115,15.4208132 240.122015,15.4997327 240.108214,15.5778999 L230.793836,68.3356787 C230.624177,69.2966474 229.785788,69.9948888 228.809983,69.9879054 L8.33237592,68.4100599 C7.29549245,68.4026395 6.43623629,67.6039933 6.35312358,66.5704196 L1.18373249,2.284862 C1.09519658,1.18384648 1.91597348,0.219524518 3.016989,0.130988616 C3.1073724,0.12372062 3.19814544,0.122607676 3.28867987,0.127657485 Z" id="Rectangle" fill="#707070"></path>
                    <text id="MAIN" font-family="SFProRounded-Heavy, SF Pro Rounded" font-size="22" font-weight="600" line-spacing="26" fill="#FFFFFF">
                        <tspan x="91.3022461" y="47">MAIN</tspan>
                    </text>
                </g>
            </g>
        </g>
    </g>
</svg>